<?xml version="1.0" encoding="UTF-8" standalone="no"?>
<!DOCTYPE svg PUBLIC "-//W3C//DTD SVG 1.1//EN"
 "http://www.w3.org/Graphics/SVG/1.1/DTD/svg11.dtd">
<!-- Generated by graphviz version 12.2.1 (0)
 -->
<!-- Title: dependencies Pages: 1 -->
<svg width="616pt" height="425pt"
 viewBox="0.00 0.00 616.06 425.25" xmlns="http://www.w3.org/2000/svg" xmlns:xlink="http://www.w3.org/1999/xlink">
<g id="graph0" class="graph" transform="scale(1 1) rotate(0) translate(4 421.25)">
<title>dependencies</title>
<polygon fill="white" stroke="none" points="-4,4 -4,-421.25 612.06,-421.25 612.06,4 -4,4"/>
<g id="clust1" class="cluster">
<title>cluster_</title>
<polygon fill="#eeeeee" stroke="#eeeeee" points="8,-64 8,-409.25 394,-409.25 394,-64 8,-64"/>
</g>
<g id="clust2" class="cluster">
<title>cluster____storages</title>
<polygon fill="#dddddd" stroke="#dddddd" points="16,-208 16,-285.25 220,-285.25 220,-208 16,-208"/>
<text text-anchor="middle" x="118" y="-267.95" font-family="Times,serif" font-size="14.00">storages</text>
</g>
<!-- ::storages::memory -->
<g id="node1" class="node">
<title>::storages::memory</title>
<ellipse fill="#93e39b" stroke="black" cx="76" cy="-234" rx="52.26" ry="18"/>
<text text-anchor="middle" x="76" y="-229.32" font-family="Times,serif" font-size="14.00">memory</text>
</g>
<!-- ::storage -->
<g id="node8" class="node">
<title>::storage</title>
<ellipse fill="#e3f38b" stroke="black" cx="206" cy="-162" rx="49.1" ry="18"/>
<text text-anchor="middle" x="206" y="-157.32" font-family="Times,serif" font-size="14.00">storage</text>
</g>
<!-- ::storages::memory&#45;&gt;::storage -->
<g id="edge10" class="edge">
<title>::storages::memory&#45;&gt;::storage</title>
<path fill="none" stroke="black" d="M103.25,-218.33C122.45,-207.99 148.36,-194.04 169.36,-182.73"/>
<polygon fill="black" stroke="black" points="170.75,-185.96 177.9,-178.13 167.43,-179.79 170.75,-185.96"/>
</g>
<!-- ::storages::mod -->
<g id="node2" class="node">
<title>::storages::mod</title>
<ellipse fill="#93e39b" stroke="black" cx="179" cy="-234" rx="32.79" ry="18"/>
<text text-anchor="middle" x="179" y="-229.32" font-family="Times,serif" font-size="14.00">mod</text>
</g>
<!-- ::app_builder -->
<g id="node3" class="node">
<title>::app_builder</title>
<ellipse fill="#e3f38b" stroke="black" cx="311" cy="-311.25" rx="70.15" ry="18"/>
<text text-anchor="middle" x="311" y="-306.57" font-family="Times,serif" font-size="14.00">app_builder</text>
</g>
<!-- ::app_builder&#45;&gt;::storages::memory -->
<g id="edge2" class="edge">
<title>::app_builder&#45;&gt;::storages::memory</title>
<path fill="none" stroke="black" d="M241.28,-308.87C208.48,-306.08 169.52,-299.61 137,-285.25 123.08,-279.1 109.76,-268.84 99.15,-259.2"/>
<polygon fill="black" stroke="black" points="101.66,-256.75 92.01,-252.38 96.83,-261.82 101.66,-256.75"/>
</g>
<!-- ::configuration -->
<g id="node4" class="node">
<title>::configuration</title>
<ellipse fill="#e3f38b" stroke="black" cx="308" cy="-234" rx="78.04" ry="18"/>
<text text-anchor="middle" x="308" y="-229.32" font-family="Times,serif" font-size="14.00">configuration</text>
</g>
<!-- ::app_builder&#45;&gt;::configuration -->
<g id="edge1" class="edge">
<title>::app_builder&#45;&gt;::configuration</title>
<path fill="none" stroke="black" d="M310.3,-292.8C309.96,-284.15 309.53,-273.5 309.14,-263.69"/>
<polygon fill="black" stroke="black" points="312.65,-263.72 308.75,-253.87 305.65,-264 312.65,-263.72"/>
</g>
<!-- ::tokio -->
<g id="node9" class="node">
<title>::tokio</title>
<ellipse fill="none" stroke="black" cx="446" cy="-234" rx="42.26" ry="18"/>
<text text-anchor="middle" x="446" y="-229.32" font-family="Times,serif" font-size="14.00">::tokio</text>
</g>
<!-- ::app_builder&#45;&gt;::tokio -->
<g id="edge3" class="edge">
<title>::app_builder&#45;&gt;::tokio</title>
<path fill="none" stroke="black" d="M365.31,-299.44C376.58,-295.9 388.05,-291.27 398,-285.25 408.68,-278.79 418.57,-269.34 426.57,-260.37"/>
<polygon fill="black" stroke="black" points="429.14,-262.75 432.91,-252.85 423.79,-258.24 429.14,-262.75"/>
</g>
<!-- ::domain -->
<g id="node5" class="node">
<title>::domain</title>
<ellipse fill="#e3f38b" stroke="black" cx="206" cy="-90" rx="48.05" ry="18"/>
<text text-anchor="middle" x="206" y="-85.33" font-family="Times,serif" font-size="14.00">domain</text>
</g>
<!-- ::std -->
<g id="node10" class="node">
<title>::std</title>
<ellipse fill="none" stroke="black" cx="206" cy="-18" rx="33.32" ry="18"/>
<text text-anchor="middle" x="206" y="-13.32" font-family="Times,serif" font-size="14.00">::std</text>
</g>
<!-- ::domain&#45;&gt;::std -->
<g id="edge4" class="edge">
<title>::domain&#45;&gt;::std</title>
<path fill="none" stroke="black" d="M206,-71.7C206,-64.41 206,-55.73 206,-47.54"/>
<polygon fill="black" stroke="black" points="209.5,-47.62 206,-37.62 202.5,-47.62 209.5,-47.62"/>
</g>
<!-- ::lib -->
<g id="node6" class="node">
<title>::lib</title>
<ellipse fill="#e3f38b" stroke="black" cx="156" cy="-383.25" rx="27" ry="18"/>
<text text-anchor="middle" x="156" y="-378.57" font-family="Times,serif" font-size="14.00">lib</text>
</g>
<!-- ::main -->
<g id="node7" class="node">
<title>::main</title>
<ellipse fill="#e3f38b" stroke="black" cx="350" cy="-383.25" rx="35.95" ry="18"/>
<text text-anchor="middle" x="350" y="-378.57" font-family="Times,serif" font-size="14.00">main</text>
</g>
<!-- ::main&#45;&gt;::app_builder -->
<g id="edge5" class="edge">
<title>::main&#45;&gt;::app_builder</title>
<path fill="none" stroke="black" d="M340.76,-365.66C336.35,-357.76 330.97,-348.1 326.01,-339.19"/>
<polygon fill="black" stroke="black" points="329.11,-337.56 321.18,-330.53 322.99,-340.97 329.11,-337.56"/>
</g>
<!-- ::anyhow -->
<g id="node11" class="node">
<title>::anyhow</title>
<ellipse fill="none" stroke="black" cx="458" cy="-311.25" rx="55.94" ry="18"/>
<text text-anchor="middle" x="458" y="-306.57" font-family="Times,serif" font-size="14.00">::anyhow</text>
</g>
<!-- ::main&#45;&gt;::anyhow -->
<g id="edge6" class="edge">
<title>::main&#45;&gt;::anyhow</title>
<path fill="none" stroke="black" d="M371.34,-368.42C386.59,-358.54 407.4,-345.04 424.81,-333.76"/>
<polygon fill="black" stroke="black" points="426.32,-336.96 432.81,-328.58 422.51,-331.08 426.32,-336.96"/>
</g>
<!-- ::clap -->
<g id="node12" class="node">
<title>::clap</title>
<ellipse fill="none" stroke="black" cx="570" cy="-311.25" rx="38.06" ry="18"/>
<text text-anchor="middle" x="570" y="-306.57" font-family="Times,serif" font-size="14.00">::clap</text>
</g>
<!-- ::main&#45;&gt;::clap -->
<g id="edge7" class="edge">
<title>::main&#45;&gt;::clap</title>
<path fill="none" stroke="black" d="M380.46,-373.42C415.13,-363.25 473.39,-345.81 523,-329.25 525.34,-328.47 527.74,-327.65 530.16,-326.82"/>
<polygon fill="black" stroke="black" points="531.05,-330.21 539.32,-323.59 528.72,-323.61 531.05,-330.21"/>
</g>
<!-- ::storage&#45;&gt;::domain -->
<g id="edge8" class="edge">
<title>::storage&#45;&gt;::domain</title>
<path fill="none" stroke="black" d="M206,-143.7C206,-136.41 206,-127.73 206,-119.54"/>
<polygon fill="black" stroke="black" points="209.5,-119.62 206,-109.62 202.5,-119.62 209.5,-119.62"/>
</g>
<!-- ::async_trait -->
<g id="node13" class="node">
<title>::async_trait</title>
<ellipse fill="none" stroke="black" cx="475" cy="-90" rx="72.78" ry="18"/>
<text text-anchor="middle" x="475" y="-85.33" font-family="Times,serif" font-size="14.00">::async_trait</text>
</g>
<!-- ::storage&#45;&gt;::async_trait -->
<g id="edge9" class="edge">
<title>::storage&#45;&gt;::async_trait</title>
<path fill="none" stroke="black" d="M245.11,-150.82C289.78,-139.2 363.35,-120.05 415.22,-106.56"/>
<polygon fill="black" stroke="black" points="416,-109.97 424.8,-104.06 414.24,-103.19 416,-109.97"/>
</g>
</g>
</svg>
