<?xml version="1.0" encoding="UTF-8" standalone="no"?>
<!DOCTYPE svg PUBLIC "-//W3C//DTD SVG 1.1//EN"
 "http://www.w3.org/Graphics/SVG/1.1/DTD/svg11.dtd">
<!-- Generated by graphviz version 12.2.1 (0)
 -->
<!-- Title: dependencies Pages: 1 -->
<svg width="958pt" height="369pt"
 viewBox="0.00 0.00 957.67 369.25" xmlns="http://www.w3.org/2000/svg" xmlns:xlink="http://www.w3.org/1999/xlink">
<g id="graph0" class="graph" transform="scale(1 1) rotate(0) translate(4 365.25)">
<title>dependencies</title>
<polygon fill="white" stroke="none" points="-4,4 -4,-365.25 953.67,-365.25 953.67,4 -4,4"/>
<g id="clust1" class="cluster">
<title>cluster_</title>
<polygon fill="#eeeeee" stroke="#eeeeee" points="8,-8 8,-353.25 450,-353.25 450,-8 8,-8"/>
</g>
<g id="clust2" class="cluster">
<title>cluster____storages</title>
<polygon fill="#dddddd" stroke="#dddddd" points="166,-224 166,-301.25 442,-301.25 442,-224 166,-224"/>
<text text-anchor="middle" x="304" y="-283.95" font-family="Times,serif" font-size="14.00">storages</text>
</g>
<!-- ::storages::file -->
<g id="node1" class="node">
<title>::storages::file</title>
<ellipse fill="#93e39b" stroke="black" cx="323" cy="-250" rx="27.01" ry="18"/>
<text text-anchor="middle" x="323" y="-245.32" font-family="Times,serif" font-size="14.00">file</text>
</g>
<!-- ::domain -->
<g id="node6" class="node">
<title>::domain</title>
<ellipse fill="#e3f38b" stroke="black" cx="311" cy="-178" rx="48.05" ry="18"/>
<text text-anchor="middle" x="311" y="-173.32" font-family="Times,serif" font-size="14.00">domain</text>
</g>
<!-- ::storages::file&#45;&gt;::domain -->
<g id="edge10" class="edge">
<title>::storages::file&#45;&gt;::domain</title>
<path fill="none" stroke="black" d="M314.42,-232.76C312.27,-225.21 310.42,-216 309.22,-207.36"/>
<polygon fill="black" stroke="black" points="312.72,-207.21 308.2,-197.63 305.76,-207.94 312.72,-207.21"/>
</g>
<!-- ::tokio -->
<g id="node13" class="node">
<title>::tokio</title>
<ellipse fill="none" stroke="black" cx="500" cy="-178" rx="42.26" ry="18"/>
<text text-anchor="middle" x="500" y="-173.32" font-family="Times,serif" font-size="14.00">::tokio</text>
</g>
<!-- ::storages::file&#45;&gt;::tokio -->
<g id="edge11" class="edge">
<title>::storages::file&#45;&gt;::tokio</title>
<path fill="none" stroke="black" d="M339.89,-235.61C345.7,-231.46 352.41,-227.16 359,-224 398.7,-204.98 412.22,-209.86 454,-196 455.57,-195.48 457.16,-194.94 458.76,-194.39"/>
<polygon fill="black" stroke="black" points="459.73,-197.76 467.99,-191.13 457.4,-191.16 459.73,-197.76"/>
</g>
<!-- ::std -->
<g id="node14" class="node">
<title>::std</title>
<ellipse fill="none" stroke="black" cx="594" cy="-178" rx="33.32" ry="18"/>
<text text-anchor="middle" x="594" y="-173.32" font-family="Times,serif" font-size="14.00">::std</text>
</g>
<!-- ::storages::file&#45;&gt;::std -->
<g id="edge12" class="edge">
<title>::storages::file&#45;&gt;::std</title>
<path fill="none" stroke="black" d="M339.29,-235.31C345.16,-231.04 352.06,-226.74 359,-224 439.21,-192.34 467.68,-218.22 551,-196 553.39,-195.36 555.84,-194.63 558.28,-193.84"/>
<polygon fill="black" stroke="black" points="559.19,-197.23 567.44,-190.57 556.84,-190.63 559.19,-197.23"/>
</g>
<!-- ::async_trait -->
<g id="node15" class="node">
<title>::async_trait</title>
<ellipse fill="none" stroke="black" cx="718" cy="-178" rx="72.78" ry="18"/>
<text text-anchor="middle" x="718" y="-173.32" font-family="Times,serif" font-size="14.00">::async_trait</text>
</g>
<!-- ::storages::file&#45;&gt;::async_trait -->
<g id="edge13" class="edge">
<title>::storages::file&#45;&gt;::async_trait</title>
<path fill="none" stroke="black" d="M339.22,-235.14C345.09,-230.85 352,-226.58 359,-224 475.07,-181.12 513.7,-214.81 636,-196 641.93,-195.09 648.07,-194.03 654.21,-192.89"/>
<polygon fill="black" stroke="black" points="654.57,-196.39 663.73,-191.07 653.25,-189.52 654.57,-196.39"/>
</g>
<!-- ::serde_json -->
<g id="node16" class="node">
<title>::serde_json</title>
<ellipse fill="none" stroke="black" cx="879" cy="-178" rx="70.67" ry="18"/>
<text text-anchor="middle" x="879" y="-173.32" font-family="Times,serif" font-size="14.00">::serde_json</text>
</g>
<!-- ::storages::file&#45;&gt;::serde_json -->
<g id="edge14" class="edge">
<title>::storages::file&#45;&gt;::serde_json</title>
<path fill="none" stroke="black" d="M338.81,-235.25C344.75,-230.87 351.81,-226.5 359,-224 451.73,-191.7 702.73,-209.48 800,-196 805.67,-195.21 811.55,-194.25 817.41,-193.17"/>
<polygon fill="black" stroke="black" points="817.99,-196.63 827.14,-191.29 816.66,-189.76 817.99,-196.63"/>
</g>
<!-- ::storages::memory -->
<g id="node2" class="node">
<title>::storages::memory</title>
<ellipse fill="#93e39b" stroke="black" cx="226" cy="-250" rx="52.26" ry="18"/>
<text text-anchor="middle" x="226" y="-245.32" font-family="Times,serif" font-size="14.00">memory</text>
</g>
<!-- ::storages::memory&#45;&gt;::domain -->
<g id="edge15" class="edge">
<title>::storages::memory&#45;&gt;::domain</title>
<path fill="none" stroke="black" d="M245.29,-233.12C256.48,-223.9 270.77,-212.13 283.17,-201.92"/>
<polygon fill="black" stroke="black" points="285.13,-204.84 290.62,-195.78 280.68,-199.44 285.13,-204.84"/>
</g>
<!-- ::storages::mod -->
<g id="node3" class="node">
<title>::storages::mod</title>
<ellipse fill="#93e39b" stroke="black" cx="401" cy="-250" rx="32.79" ry="18"/>
<text text-anchor="middle" x="401" y="-245.32" font-family="Times,serif" font-size="14.00">mod</text>
</g>
<!-- ::app_builder -->
<g id="node4" class="node">
<title>::app_builder</title>
<ellipse fill="#e3f38b" stroke="black" cx="86" cy="-250" rx="70.15" ry="18"/>
<text text-anchor="middle" x="86" y="-245.32" font-family="Times,serif" font-size="14.00">app_builder</text>
</g>
<!-- ::configuration -->
<g id="node5" class="node">
<title>::configuration</title>
<ellipse fill="#e3f38b" stroke="black" cx="131" cy="-178" rx="78.04" ry="18"/>
<text text-anchor="middle" x="131" y="-173.32" font-family="Times,serif" font-size="14.00">configuration</text>
</g>
<!-- ::app_builder&#45;&gt;::configuration -->
<g id="edge1" class="edge">
<title>::app_builder&#45;&gt;::configuration</title>
<path fill="none" stroke="black" d="M96.89,-232.05C101.96,-224.18 108.1,-214.62 113.78,-205.79"/>
<polygon fill="black" stroke="black" points="116.61,-207.85 119.08,-197.55 110.72,-204.07 116.61,-207.85"/>
</g>
<!-- ::app_builder&#45;&gt;::domain -->
<g id="edge2" class="edge">
<title>::app_builder&#45;&gt;::domain</title>
<path fill="none" stroke="black" d="M127.36,-235.19C138.58,-231.5 150.74,-227.55 162,-224 195.82,-213.33 234.12,-201.78 263.42,-193.05"/>
<polygon fill="black" stroke="black" points="264.14,-196.48 272.73,-190.28 262.15,-189.77 264.14,-196.48"/>
</g>
<!-- ::clap -->
<g id="node11" class="node">
<title>::clap</title>
<ellipse fill="none" stroke="black" cx="497" cy="-106" rx="38.06" ry="18"/>
<text text-anchor="middle" x="497" y="-101.33" font-family="Times,serif" font-size="14.00">::clap</text>
</g>
<!-- ::configuration&#45;&gt;::clap -->
<g id="edge3" class="edge">
<title>::configuration&#45;&gt;::clap</title>
<path fill="none" stroke="black" d="M196.6,-167.93C276.53,-156.58 406.76,-137.05 454,-124 455.6,-123.56 457.21,-123.08 458.84,-122.57"/>
<polygon fill="black" stroke="black" points="459.81,-125.94 468.11,-119.36 457.51,-119.32 459.81,-125.94"/>
</g>
<!-- ::domain&#45;&gt;::storages::file -->
<g id="edge4" class="edge">
<title>::domain&#45;&gt;::storages::file</title>
<path fill="none" stroke="black" d="M319.83,-196.1C321.86,-203.45 323.61,-212.24 324.76,-220.53"/>
<polygon fill="black" stroke="black" points="321.25,-220.62 325.79,-230.19 328.21,-219.88 321.25,-220.62"/>
</g>
<!-- ::use_cases -->
<g id="node10" class="node">
<title>::use_cases</title>
<ellipse fill="#e3f38b" stroke="black" cx="380" cy="-106" rx="60.68" ry="18"/>
<text text-anchor="middle" x="380" y="-101.33" font-family="Times,serif" font-size="14.00">use_cases</text>
</g>
<!-- ::domain&#45;&gt;::use_cases -->
<g id="edge5" class="edge">
<title>::domain&#45;&gt;::use_cases</title>
<path fill="none" stroke="black" d="M327,-160.76C335.5,-152.14 346.13,-141.36 355.63,-131.73"/>
<polygon fill="black" stroke="black" points="358.01,-134.29 362.54,-124.71 353.03,-129.38 358.01,-134.29"/>
</g>
<!-- ::lib -->
<g id="node7" class="node">
<title>::lib</title>
<ellipse fill="#e3f38b" stroke="black" cx="94" cy="-327.25" rx="27" ry="18"/>
<text text-anchor="middle" x="94" y="-322.57" font-family="Times,serif" font-size="14.00">lib</text>
</g>
<!-- ::main -->
<g id="node8" class="node">
<title>::main</title>
<ellipse fill="#e3f38b" stroke="black" cx="226" cy="-327.25" rx="35.95" ry="18"/>
<text text-anchor="middle" x="226" y="-322.57" font-family="Times,serif" font-size="14.00">main</text>
</g>
<!-- ::main&#45;&gt;::storages::memory -->
<g id="edge7" class="edge">
<title>::main&#45;&gt;::storages::memory</title>
<path fill="none" stroke="black" d="M226,-308.8C226,-300.15 226,-289.5 226,-279.69"/>
<polygon fill="black" stroke="black" points="229.5,-279.87 226,-269.87 222.5,-279.87 229.5,-279.87"/>
</g>
<!-- ::main&#45;&gt;::app_builder -->
<g id="edge6" class="edge">
<title>::main&#45;&gt;::app_builder</title>
<path fill="none" stroke="black" d="M196.75,-316.31C185.64,-312.16 173.01,-306.96 162,-301.25 146.75,-293.34 130.75,-283.1 117.39,-273.92"/>
<polygon fill="black" stroke="black" points="119.62,-271.21 109.42,-268.35 115.61,-276.95 119.62,-271.21"/>
</g>
<!-- ::anyhow -->
<g id="node12" class="node">
<title>::anyhow</title>
<ellipse fill="none" stroke="black" cx="514" cy="-250" rx="55.94" ry="18"/>
<text text-anchor="middle" x="514" y="-245.32" font-family="Times,serif" font-size="14.00">::anyhow</text>
</g>
<!-- ::main&#45;&gt;::anyhow -->
<g id="edge8" class="edge">
<title>::main&#45;&gt;::anyhow</title>
<path fill="none" stroke="black" d="M261.92,-324.43C315.45,-321.33 413.36,-314.09 446,-301.25 461.46,-295.17 476.54,-284.65 488.55,-274.8"/>
<polygon fill="black" stroke="black" points="490.63,-277.63 495.95,-268.46 486.07,-272.31 490.63,-277.63"/>
</g>
<!-- ::storage -->
<g id="node9" class="node">
<title>::storage</title>
<ellipse fill="#e3f38b" stroke="black" cx="340" cy="-34" rx="49.1" ry="18"/>
<text text-anchor="middle" x="340" y="-29.32" font-family="Times,serif" font-size="14.00">storage</text>
</g>
<!-- ::storage&#45;&gt;::domain -->
<g id="edge9" class="edge">
<title>::storage&#45;&gt;::domain</title>
<path fill="none" stroke="black" d="M327.59,-51.68C320.95,-61.66 313.45,-74.91 310,-88 304.82,-107.67 305.23,-130.64 306.85,-148.32"/>
<polygon fill="black" stroke="black" points="303.36,-148.55 307.95,-158.1 310.31,-147.77 303.36,-148.55"/>
</g>
<!-- ::use_cases&#45;&gt;::storage -->
<g id="edge16" class="edge">
<title>::use_cases&#45;&gt;::storage</title>
<path fill="none" stroke="black" d="M370.32,-88.05C365.8,-80.14 360.31,-70.54 355.25,-61.69"/>
<polygon fill="black" stroke="black" points="358.34,-60.05 350.34,-53.1 352.27,-63.52 358.34,-60.05"/>
</g>
<!-- ::serde -->
<g id="node17" class="node">
<title>::serde</title>
<ellipse fill="none" stroke="black" cx="503" cy="-34" rx="45.42" ry="18"/>
<text text-anchor="middle" x="503" y="-29.32" font-family="Times,serif" font-size="14.00">::serde</text>
</g>
<!-- ::use_cases&#45;&gt;::serde -->
<g id="edge17" class="edge">
<title>::use_cases&#45;&gt;::serde</title>
<path fill="none" stroke="black" d="M407.3,-89.46C425.18,-79.29 448.71,-65.9 467.96,-54.94"/>
<polygon fill="black" stroke="black" points="469.6,-58.04 476.56,-50.05 466.13,-51.95 469.6,-58.04"/>
</g>
</g>
</svg>
