<?xml version="1.0" encoding="UTF-8" standalone="no"?>
<!DOCTYPE svg PUBLIC "-//W3C//DTD SVG 1.1//EN"
 "http://www.w3.org/Graphics/SVG/1.1/DTD/svg11.dtd">
<!-- Generated by graphviz version 12.2.1 (0)
 -->
<!-- Title: dependencies Pages: 1 -->
<svg width="517pt" height="276pt"
 viewBox="0.00 0.00 517.06 276.00" xmlns="http://www.w3.org/2000/svg" xmlns:xlink="http://www.w3.org/1999/xlink">
<g id="graph0" class="graph" transform="scale(1 1) rotate(0) translate(4 272)">
<title>dependencies</title>
<polygon fill="white" stroke="none" points="-4,4 -4,-272 513.06,-272 513.06,4 -4,4"/>
<g id="clust1" class="cluster">
<title>cluster_</title>
<polygon fill="#eeeeee" stroke="#eeeeee" points="8,-64 8,-260 294,-260 294,-64 8,-64"/>
</g>
<!-- ::app_builder -->
<g id="node1" class="node">
<title>::app_builder</title>
<ellipse fill="#e3f38b" stroke="black" cx="215" cy="-162" rx="70.15" ry="18"/>
<text text-anchor="middle" x="215" y="-157.32" font-family="Times,serif" font-size="14.00">app_builder</text>
</g>
<!-- ::configuration -->
<g id="node2" class="node">
<title>::configuration</title>
<ellipse fill="#e3f38b" stroke="black" cx="94" cy="-90" rx="78.04" ry="18"/>
<text text-anchor="middle" x="94" y="-85.33" font-family="Times,serif" font-size="14.00">configuration</text>
</g>
<!-- ::app_builder&#45;&gt;::configuration -->
<g id="edge1" class="edge">
<title>::app_builder&#45;&gt;::configuration</title>
<path fill="none" stroke="black" d="M187.54,-145.12C171.03,-135.56 149.78,-123.27 131.7,-112.81"/>
<polygon fill="black" stroke="black" points="133.49,-109.8 123.08,-107.82 129.98,-115.86 133.49,-109.8"/>
</g>
<!-- ::domain -->
<g id="node3" class="node">
<title>::domain</title>
<ellipse fill="#e3f38b" stroke="black" cx="238" cy="-90" rx="48.05" ry="18"/>
<text text-anchor="middle" x="238" y="-85.33" font-family="Times,serif" font-size="14.00">domain</text>
</g>
<!-- ::app_builder&#45;&gt;::domain -->
<g id="edge2" class="edge">
<title>::app_builder&#45;&gt;::domain</title>
<path fill="none" stroke="black" d="M220.69,-143.7C223.14,-136.24 226.07,-127.32 228.81,-118.97"/>
<polygon fill="black" stroke="black" points="232.11,-120.14 231.91,-109.54 225.46,-117.95 232.11,-120.14"/>
</g>
<!-- ::tokio -->
<g id="node6" class="node">
<title>::tokio</title>
<ellipse fill="none" stroke="black" cx="346" cy="-90" rx="42.26" ry="18"/>
<text text-anchor="middle" x="346" y="-85.33" font-family="Times,serif" font-size="14.00">::tokio</text>
</g>
<!-- ::app_builder&#45;&gt;::tokio -->
<g id="edge3" class="edge">
<title>::app_builder&#45;&gt;::tokio</title>
<path fill="none" stroke="black" d="M244.4,-145.29C263.89,-134.88 289.58,-121.15 310.25,-110.1"/>
<polygon fill="black" stroke="black" points="311.74,-113.28 318.91,-105.48 308.44,-107.1 311.74,-113.28"/>
</g>
<!-- ::std -->
<g id="node7" class="node">
<title>::std</title>
<ellipse fill="none" stroke="black" cx="238" cy="-18" rx="33.32" ry="18"/>
<text text-anchor="middle" x="238" y="-13.32" font-family="Times,serif" font-size="14.00">::std</text>
</g>
<!-- ::domain&#45;&gt;::std -->
<g id="edge4" class="edge">
<title>::domain&#45;&gt;::std</title>
<path fill="none" stroke="black" d="M238,-71.7C238,-64.41 238,-55.73 238,-47.54"/>
<polygon fill="black" stroke="black" points="241.5,-47.62 238,-37.62 234.5,-47.62 241.5,-47.62"/>
</g>
<!-- ::lib -->
<g id="node4" class="node">
<title>::lib</title>
<ellipse fill="#e3f38b" stroke="black" cx="106" cy="-234" rx="27" ry="18"/>
<text text-anchor="middle" x="106" y="-229.32" font-family="Times,serif" font-size="14.00">lib</text>
</g>
<!-- ::main -->
<g id="node5" class="node">
<title>::main</title>
<ellipse fill="#e3f38b" stroke="black" cx="250" cy="-234" rx="35.95" ry="18"/>
<text text-anchor="middle" x="250" y="-229.32" font-family="Times,serif" font-size="14.00">main</text>
</g>
<!-- ::main&#45;&gt;::app_builder -->
<g id="edge5" class="edge">
<title>::main&#45;&gt;::app_builder</title>
<path fill="none" stroke="black" d="M241.53,-216.05C237.67,-208.35 233.01,-199.03 228.68,-190.36"/>
<polygon fill="black" stroke="black" points="231.92,-189.01 224.31,-181.63 225.66,-192.14 231.92,-189.01"/>
</g>
<!-- ::anyhow -->
<g id="node8" class="node">
<title>::anyhow</title>
<ellipse fill="none" stroke="black" cx="359" cy="-162" rx="55.94" ry="18"/>
<text text-anchor="middle" x="359" y="-157.32" font-family="Times,serif" font-size="14.00">::anyhow</text>
</g>
<!-- ::main&#45;&gt;::anyhow -->
<g id="edge6" class="edge">
<title>::main&#45;&gt;::anyhow</title>
<path fill="none" stroke="black" d="M271.53,-219.17C286.93,-209.29 307.93,-195.79 325.5,-184.51"/>
<polygon fill="black" stroke="black" points="327.06,-187.67 333.58,-179.32 323.27,-181.78 327.06,-187.67"/>
</g>
<!-- ::clap -->
<g id="node9" class="node">
<title>::clap</title>
<ellipse fill="none" stroke="black" cx="471" cy="-162" rx="38.06" ry="18"/>
<text text-anchor="middle" x="471" y="-157.32" font-family="Times,serif" font-size="14.00">::clap</text>
</g>
<!-- ::main&#45;&gt;::clap -->
<g id="edge7" class="edge">
<title>::main&#45;&gt;::clap</title>
<path fill="none" stroke="black" d="M280.64,-224.19C315.51,-214.03 374.11,-196.61 424,-180 426.34,-179.22 428.74,-178.4 431.16,-177.57"/>
<polygon fill="black" stroke="black" points="432.05,-180.97 440.32,-174.35 429.72,-174.36 432.05,-180.97"/>
</g>
</g>
</svg>
