<?xml version="1.0" encoding="UTF-8" standalone="no"?>
<!DOCTYPE svg PUBLIC "-//W3C//DTD SVG 1.1//EN"
 "http://www.w3.org/Graphics/SVG/1.1/DTD/svg11.dtd">
<!-- Generated by graphviz version 12.2.1 (0)
 -->
<!-- Title: dependencies Pages: 1 -->
<svg width="1285pt" height="297pt"
 viewBox="0.00 0.00 1285.06 297.25" xmlns="http://www.w3.org/2000/svg" xmlns:xlink="http://www.w3.org/1999/xlink">
<g id="graph0" class="graph" transform="scale(1 1) rotate(0) translate(4 293.25)">
<title>dependencies</title>
<polygon fill="white" stroke="none" points="-4,4 -4,-293.25 1281.06,-293.25 1281.06,4 -4,4"/>
<g id="clust1" class="cluster">
<title>cluster_</title>
<polygon fill="#eeeeee" stroke="#eeeeee" points="8,-8 8,-281.25 574,-281.25 574,-8 8,-8"/>
</g>
<g id="clust2" class="cluster">
<title>cluster____storages</title>
<polygon fill="#dddddd" stroke="#dddddd" points="124,-80 124,-157.25 400,-157.25 400,-80 124,-80"/>
<text text-anchor="middle" x="262" y="-139.95" font-family="Times,serif" font-size="14.00">storages</text>
</g>
<!-- ::storages::file -->
<g id="node1" class="node">
<title>::storages::file</title>
<ellipse fill="#93e39b" stroke="black" cx="281" cy="-106" rx="27.01" ry="18"/>
<text text-anchor="middle" x="281" y="-101.33" font-family="Times,serif" font-size="14.00">file</text>
</g>
<!-- ::storage -->
<g id="node9" class="node">
<title>::storage</title>
<ellipse fill="#e3f38b" stroke="black" cx="65" cy="-106" rx="49.1" ry="18"/>
<text text-anchor="middle" x="65" y="-101.33" font-family="Times,serif" font-size="14.00">storage</text>
</g>
<!-- ::storages::file&#45;&gt;::storage -->
<g id="edge8" class="edge">
<title>::storages::file&#45;&gt;::storage</title>
<path fill="none" stroke="black" d="M272.21,-123.03C265.87,-133.98 256.42,-147.86 245,-157.25 241.62,-160.03 240.28,-160.34 236,-161.25 212.74,-166.19 152.26,-166.19 129,-161.25 111.44,-157.52 96.05,-144.75 84.76,-132.42"/>
<polygon fill="black" stroke="black" points="87.43,-130.15 78.28,-124.81 82.1,-134.69 87.43,-130.15"/>
</g>
<!-- ::tokio -->
<g id="node12" class="node">
<title>::tokio</title>
<ellipse fill="none" stroke="black" cx="624" cy="-34" rx="42.26" ry="18"/>
<text text-anchor="middle" x="624" y="-29.32" font-family="Times,serif" font-size="14.00">::tokio</text>
</g>
<!-- ::storages::file&#45;&gt;::tokio -->
<g id="edge9" class="edge">
<title>::storages::file&#45;&gt;::tokio</title>
<path fill="none" stroke="black" d="M297.23,-91.16C303.1,-86.88 310.01,-82.61 317,-80 426.31,-39.24 464.42,-78.65 578,-52 579.88,-51.56 581.79,-51.06 583.71,-50.52"/>
<polygon fill="black" stroke="black" points="584.71,-53.88 593.19,-47.53 582.6,-47.2 584.71,-53.88"/>
</g>
<!-- ::std -->
<g id="node13" class="node">
<title>::std</title>
<ellipse fill="none" stroke="black" cx="718" cy="-34" rx="33.32" ry="18"/>
<text text-anchor="middle" x="718" y="-29.32" font-family="Times,serif" font-size="14.00">::std</text>
</g>
<!-- ::storages::file&#45;&gt;::std -->
<g id="edge10" class="edge">
<title>::storages::file&#45;&gt;::std</title>
<path fill="none" stroke="black" d="M297.19,-91.05C303.05,-86.76 309.98,-82.5 317,-80 467.33,-26.4 519.51,-87.96 675,-52 677.41,-51.44 679.87,-50.77 682.33,-50.02"/>
<polygon fill="black" stroke="black" points="683.2,-53.43 691.5,-46.85 680.91,-46.81 683.2,-53.43"/>
</g>
<!-- ::async_trait -->
<g id="node14" class="node">
<title>::async_trait</title>
<ellipse fill="none" stroke="black" cx="842" cy="-34" rx="72.78" ry="18"/>
<text text-anchor="middle" x="842" y="-29.32" font-family="Times,serif" font-size="14.00">::async_trait</text>
</g>
<!-- ::storages::file&#45;&gt;::async_trait -->
<g id="edge11" class="edge">
<title>::storages::file&#45;&gt;::async_trait</title>
<path fill="none" stroke="black" d="M296.81,-91.25C302.75,-86.86 309.81,-82.5 317,-80 410.16,-47.56 662.24,-65.16 760,-52 766.28,-51.16 772.79,-50.11 779.28,-48.95"/>
<polygon fill="black" stroke="black" points="779.47,-52.47 788.65,-47.19 778.17,-45.59 779.47,-52.47"/>
</g>
<!-- ::serde -->
<g id="node15" class="node">
<title>::serde</title>
<ellipse fill="none" stroke="black" cx="978" cy="-34" rx="45.42" ry="18"/>
<text text-anchor="middle" x="978" y="-29.32" font-family="Times,serif" font-size="14.00">::serde</text>
</g>
<!-- ::storages::file&#45;&gt;::serde -->
<g id="edge12" class="edge">
<title>::storages::file&#45;&gt;::serde</title>
<path fill="none" stroke="black" d="M296.78,-91.18C302.72,-86.79 309.79,-82.44 317,-80 444.9,-36.69 791.04,-75.58 924,-52 927.38,-51.4 930.83,-50.65 934.29,-49.8"/>
<polygon fill="black" stroke="black" points="935.03,-53.22 943.75,-47.21 933.18,-46.47 935.03,-53.22"/>
</g>
<!-- ::serde_json -->
<g id="node16" class="node">
<title>::serde_json</title>
<ellipse fill="none" stroke="black" cx="1112" cy="-34" rx="70.67" ry="18"/>
<text text-anchor="middle" x="1112" y="-29.32" font-family="Times,serif" font-size="14.00">::serde_json</text>
</g>
<!-- ::storages::file&#45;&gt;::serde_json -->
<g id="edge13" class="edge">
<title>::storages::file&#45;&gt;::serde_json</title>
<path fill="none" stroke="black" d="M296.77,-91.16C302.71,-86.76 309.78,-82.42 317,-80 467.78,-29.52 874.22,-71.71 1032,-52 1038.08,-51.24 1044.38,-50.26 1050.65,-49.14"/>
<polygon fill="black" stroke="black" points="1051.2,-52.6 1060.38,-47.3 1049.9,-45.72 1051.2,-52.6"/>
</g>
<!-- ::storages::memory -->
<g id="node2" class="node">
<title>::storages::memory</title>
<ellipse fill="#93e39b" stroke="black" cx="184" cy="-106" rx="52.26" ry="18"/>
<text text-anchor="middle" x="184" y="-101.33" font-family="Times,serif" font-size="14.00">memory</text>
</g>
<!-- ::domain -->
<g id="node6" class="node">
<title>::domain</title>
<ellipse fill="#e3f38b" stroke="black" cx="184" cy="-34" rx="48.05" ry="18"/>
<text text-anchor="middle" x="184" y="-29.32" font-family="Times,serif" font-size="14.00">domain</text>
</g>
<!-- ::storages::memory&#45;&gt;::domain -->
<g id="edge14" class="edge">
<title>::storages::memory&#45;&gt;::domain</title>
<path fill="none" stroke="black" d="M184,-87.7C184,-80.41 184,-71.73 184,-63.54"/>
<polygon fill="black" stroke="black" points="187.5,-63.62 184,-53.62 180.5,-63.62 187.5,-63.62"/>
</g>
<!-- ::storages::mod -->
<g id="node3" class="node">
<title>::storages::mod</title>
<ellipse fill="#93e39b" stroke="black" cx="359" cy="-106" rx="32.79" ry="18"/>
<text text-anchor="middle" x="359" y="-101.33" font-family="Times,serif" font-size="14.00">mod</text>
</g>
<!-- ::app_builder -->
<g id="node4" class="node">
<title>::app_builder</title>
<ellipse fill="#e3f38b" stroke="black" cx="488" cy="-183.25" rx="70.15" ry="18"/>
<text text-anchor="middle" x="488" y="-178.57" font-family="Times,serif" font-size="14.00">app_builder</text>
</g>
<!-- ::app_builder&#45;&gt;::storages::memory -->
<g id="edge2" class="edge">
<title>::app_builder&#45;&gt;::storages::memory</title>
<path fill="none" stroke="black" d="M418.83,-179.58C358.28,-176.43 275.38,-169.94 245,-157.25 230.96,-151.38 217.63,-141.16 207.03,-131.47"/>
<polygon fill="black" stroke="black" points="209.54,-129.02 199.91,-124.6 204.68,-134.06 209.54,-129.02"/>
</g>
<!-- ::configuration -->
<g id="node5" class="node">
<title>::configuration</title>
<ellipse fill="#e3f38b" stroke="black" cx="488" cy="-106" rx="78.04" ry="18"/>
<text text-anchor="middle" x="488" y="-101.33" font-family="Times,serif" font-size="14.00">configuration</text>
</g>
<!-- ::app_builder&#45;&gt;::configuration -->
<g id="edge1" class="edge">
<title>::app_builder&#45;&gt;::configuration</title>
<path fill="none" stroke="black" d="M488,-164.8C488,-156.15 488,-145.5 488,-135.69"/>
<polygon fill="black" stroke="black" points="491.5,-135.87 488,-125.87 484.5,-135.87 491.5,-135.87"/>
</g>
<!-- ::clap -->
<g id="node10" class="node">
<title>::clap</title>
<ellipse fill="none" stroke="black" cx="1239" cy="-34" rx="38.06" ry="18"/>
<text text-anchor="middle" x="1239" y="-29.32" font-family="Times,serif" font-size="14.00">::clap</text>
</g>
<!-- ::configuration&#45;&gt;::clap -->
<g id="edge3" class="edge">
<title>::configuration&#45;&gt;::clap</title>
<path fill="none" stroke="black" d="M566.33,-105.99C697.36,-106.13 968.63,-99.87 1192,-52 1194.75,-51.41 1197.55,-50.7 1200.35,-49.91"/>
<polygon fill="black" stroke="black" points="1201.11,-53.34 1209.59,-46.98 1199,-46.66 1201.11,-53.34"/>
</g>
<!-- ::domain&#45;&gt;::storages::file -->
<g id="edge4" class="edge">
<title>::domain&#45;&gt;::storages::file</title>
<path fill="none" stroke="black" d="M205.4,-50.45C219.77,-60.81 238.81,-74.55 254.18,-85.65"/>
<polygon fill="black" stroke="black" points="251.82,-88.26 261.98,-91.28 255.92,-82.59 251.82,-88.26"/>
</g>
<!-- ::lib -->
<g id="node7" class="node">
<title>::lib</title>
<ellipse fill="#e3f38b" stroke="black" cx="246" cy="-255.25" rx="27" ry="18"/>
<text text-anchor="middle" x="246" y="-250.57" font-family="Times,serif" font-size="14.00">lib</text>
</g>
<!-- ::main -->
<g id="node8" class="node">
<title>::main</title>
<ellipse fill="#e3f38b" stroke="black" cx="509" cy="-255.25" rx="35.95" ry="18"/>
<text text-anchor="middle" x="509" y="-250.57" font-family="Times,serif" font-size="14.00">main</text>
</g>
<!-- ::main&#45;&gt;::app_builder -->
<g id="edge5" class="edge">
<title>::main&#45;&gt;::app_builder</title>
<path fill="none" stroke="black" d="M503.81,-236.95C501.57,-229.49 498.9,-220.57 496.39,-212.22"/>
<polygon fill="black" stroke="black" points="499.79,-211.38 493.57,-202.8 493.09,-213.39 499.79,-211.38"/>
</g>
<!-- ::anyhow -->
<g id="node11" class="node">
<title>::anyhow</title>
<ellipse fill="none" stroke="black" cx="638" cy="-183.25" rx="55.94" ry="18"/>
<text text-anchor="middle" x="638" y="-178.57" font-family="Times,serif" font-size="14.00">::anyhow</text>
</g>
<!-- ::main&#45;&gt;::anyhow -->
<g id="edge6" class="edge">
<title>::main&#45;&gt;::anyhow</title>
<path fill="none" stroke="black" d="M532.66,-241.41C551.62,-231.12 578.59,-216.49 600.49,-204.61"/>
<polygon fill="black" stroke="black" points="602.01,-207.76 609.13,-199.92 598.67,-201.61 602.01,-207.76"/>
</g>
<!-- ::storage&#45;&gt;::domain -->
<g id="edge7" class="edge">
<title>::storage&#45;&gt;::domain</title>
<path fill="none" stroke="black" d="M90.24,-90.15C107.47,-80.02 130.52,-66.46 149.46,-55.32"/>
<polygon fill="black" stroke="black" points="151.06,-58.44 157.9,-50.35 147.51,-52.4 151.06,-58.44"/>
</g>
</g>
</svg>
