<?xml version="1.0" encoding="UTF-8" standalone="no"?>
<!DOCTYPE svg PUBLIC "-//W3C//DTD SVG 1.1//EN"
 "http://www.w3.org/Graphics/SVG/1.1/DTD/svg11.dtd">
<!-- Generated by graphviz version 12.2.1 (0)
 -->
<!-- Title: dependencies Pages: 1 -->
<svg width="1183pt" height="281pt"
 viewBox="0.00 0.00 1182.67 281.25" xmlns="http://www.w3.org/2000/svg" xmlns:xlink="http://www.w3.org/1999/xlink">
<g id="graph0" class="graph" transform="scale(1 1) rotate(0) translate(4 277.25)">
<title>dependencies</title>
<polygon fill="white" stroke="none" points="-4,4 -4,-277.25 1178.67,-277.25 1178.67,4 -4,4"/>
<g id="clust1" class="cluster">
<title>cluster_</title>
<polygon fill="#eeeeee" stroke="#eeeeee" points="8,-64 8,-265.25 566,-265.25 566,-64 8,-64"/>
</g>
<g id="clust2" class="cluster">
<title>cluster____storages</title>
<polygon fill="#dddddd" stroke="#dddddd" points="282,-136 282,-213.25 558,-213.25 558,-136 282,-136"/>
<text text-anchor="middle" x="420" y="-195.95" font-family="Times,serif" font-size="14.00">storages</text>
</g>
<!-- ::storages::file -->
<g id="node1" class="node">
<title>::storages::file</title>
<ellipse fill="#93e39b" stroke="black" cx="439" cy="-162" rx="27.01" ry="18"/>
<text text-anchor="middle" x="439" y="-157.32" font-family="Times,serif" font-size="14.00">file</text>
</g>
<!-- ::storage -->
<g id="node9" class="node">
<title>::storage</title>
<ellipse fill="#e3f38b" stroke="black" cx="223" cy="-162" rx="49.1" ry="18"/>
<text text-anchor="middle" x="223" y="-157.32" font-family="Times,serif" font-size="14.00">storage</text>
</g>
<!-- ::storages::file&#45;&gt;::storage -->
<g id="edge9" class="edge">
<title>::storages::file&#45;&gt;::storage</title>
<path fill="none" stroke="black" d="M430.21,-179.03C423.87,-189.98 414.42,-203.86 403,-213.25 399.62,-216.03 398.28,-216.34 394,-217.25 370.74,-222.19 310.26,-222.19 287,-217.25 269.44,-213.52 254.05,-200.75 242.76,-188.42"/>
<polygon fill="black" stroke="black" points="245.43,-186.15 236.28,-180.81 240.1,-190.69 245.43,-186.15"/>
</g>
<!-- ::tokio -->
<g id="node12" class="node">
<title>::tokio</title>
<ellipse fill="none" stroke="black" cx="616" cy="-90" rx="42.26" ry="18"/>
<text text-anchor="middle" x="616" y="-85.33" font-family="Times,serif" font-size="14.00">::tokio</text>
</g>
<!-- ::storages::file&#45;&gt;::tokio -->
<g id="edge10" class="edge">
<title>::storages::file&#45;&gt;::tokio</title>
<path fill="none" stroke="black" d="M455.89,-147.61C461.7,-143.46 468.41,-139.16 475,-136 514.7,-116.98 528.22,-121.86 570,-108 571.57,-107.48 573.16,-106.94 574.76,-106.39"/>
<polygon fill="black" stroke="black" points="575.73,-109.76 583.99,-103.13 573.4,-103.16 575.73,-109.76"/>
</g>
<!-- ::std -->
<g id="node13" class="node">
<title>::std</title>
<ellipse fill="none" stroke="black" cx="710" cy="-90" rx="33.32" ry="18"/>
<text text-anchor="middle" x="710" y="-85.33" font-family="Times,serif" font-size="14.00">::std</text>
</g>
<!-- ::storages::file&#45;&gt;::std -->
<g id="edge11" class="edge">
<title>::storages::file&#45;&gt;::std</title>
<path fill="none" stroke="black" d="M455.29,-147.31C461.16,-143.04 468.06,-138.74 475,-136 555.21,-104.34 583.68,-130.22 667,-108 669.39,-107.36 671.84,-106.63 674.28,-105.84"/>
<polygon fill="black" stroke="black" points="675.19,-109.23 683.44,-102.57 672.84,-102.63 675.19,-109.23"/>
</g>
<!-- ::async_trait -->
<g id="node14" class="node">
<title>::async_trait</title>
<ellipse fill="none" stroke="black" cx="834" cy="-90" rx="72.78" ry="18"/>
<text text-anchor="middle" x="834" y="-85.33" font-family="Times,serif" font-size="14.00">::async_trait</text>
</g>
<!-- ::storages::file&#45;&gt;::async_trait -->
<g id="edge12" class="edge">
<title>::storages::file&#45;&gt;::async_trait</title>
<path fill="none" stroke="black" d="M455.22,-147.14C461.09,-142.85 468,-138.58 475,-136 591.07,-93.12 629.7,-126.81 752,-108 757.93,-107.09 764.07,-106.03 770.21,-104.89"/>
<polygon fill="black" stroke="black" points="770.57,-108.39 779.73,-103.07 769.25,-101.52 770.57,-108.39"/>
</g>
<!-- ::serde -->
<g id="node15" class="node">
<title>::serde</title>
<ellipse fill="none" stroke="black" cx="970" cy="-90" rx="45.42" ry="18"/>
<text text-anchor="middle" x="970" y="-85.33" font-family="Times,serif" font-size="14.00">::serde</text>
</g>
<!-- ::storages::file&#45;&gt;::serde -->
<g id="edge13" class="edge">
<title>::storages::file&#45;&gt;::serde</title>
<path fill="none" stroke="black" d="M454.81,-147.25C460.75,-142.87 467.81,-138.5 475,-136 660.46,-71.39 722.93,-143.97 916,-108 919.32,-107.38 922.73,-106.62 926.13,-105.77"/>
<polygon fill="black" stroke="black" points="926.74,-109.23 935.45,-103.2 924.88,-102.49 926.74,-109.23"/>
</g>
<!-- ::serde_json -->
<g id="node16" class="node">
<title>::serde_json</title>
<ellipse fill="none" stroke="black" cx="1104" cy="-90" rx="70.67" ry="18"/>
<text text-anchor="middle" x="1104" y="-85.33" font-family="Times,serif" font-size="14.00">::serde_json</text>
</g>
<!-- ::storages::file&#45;&gt;::serde_json -->
<g id="edge14" class="edge">
<title>::storages::file&#45;&gt;::serde_json</title>
<path fill="none" stroke="black" d="M454.79,-147.2C460.73,-142.81 467.8,-138.46 475,-136 590.61,-96.53 902.87,-123.86 1024,-108 1029.98,-107.22 1036.19,-106.22 1042.37,-105.12"/>
<polygon fill="black" stroke="black" points="1042.77,-108.6 1051.94,-103.29 1041.46,-101.73 1042.77,-108.6"/>
</g>
<!-- ::storages::memory -->
<g id="node2" class="node">
<title>::storages::memory</title>
<ellipse fill="#93e39b" stroke="black" cx="342" cy="-162" rx="52.26" ry="18"/>
<text text-anchor="middle" x="342" y="-157.32" font-family="Times,serif" font-size="14.00">memory</text>
</g>
<!-- ::domain -->
<g id="node6" class="node">
<title>::domain</title>
<ellipse fill="#e3f38b" stroke="black" cx="290" cy="-90" rx="48.05" ry="18"/>
<text text-anchor="middle" x="290" y="-85.33" font-family="Times,serif" font-size="14.00">domain</text>
</g>
<!-- ::storages::memory&#45;&gt;::domain -->
<g id="edge15" class="edge">
<title>::storages::memory&#45;&gt;::domain</title>
<path fill="none" stroke="black" d="M329.41,-144.05C323.34,-135.89 315.93,-125.91 309.18,-116.82"/>
<polygon fill="black" stroke="black" points="312.15,-114.94 303.37,-109 306.53,-119.12 312.15,-114.94"/>
</g>
<!-- ::storages::mod -->
<g id="node3" class="node">
<title>::storages::mod</title>
<ellipse fill="#93e39b" stroke="black" cx="517" cy="-162" rx="32.79" ry="18"/>
<text text-anchor="middle" x="517" y="-157.32" font-family="Times,serif" font-size="14.00">mod</text>
</g>
<!-- ::app_builder -->
<g id="node4" class="node">
<title>::app_builder</title>
<ellipse fill="#e3f38b" stroke="black" cx="86" cy="-162" rx="70.15" ry="18"/>
<text text-anchor="middle" x="86" y="-157.32" font-family="Times,serif" font-size="14.00">app_builder</text>
</g>
<!-- ::configuration -->
<g id="node5" class="node">
<title>::configuration</title>
<ellipse fill="#e3f38b" stroke="black" cx="94" cy="-90" rx="78.04" ry="18"/>
<text text-anchor="middle" x="94" y="-85.33" font-family="Times,serif" font-size="14.00">configuration</text>
</g>
<!-- ::app_builder&#45;&gt;::configuration -->
<g id="edge1" class="edge">
<title>::app_builder&#45;&gt;::configuration</title>
<path fill="none" stroke="black" d="M87.98,-143.7C88.81,-136.41 89.8,-127.73 90.74,-119.54"/>
<polygon fill="black" stroke="black" points="94.22,-119.94 91.87,-109.61 87.26,-119.15 94.22,-119.94"/>
</g>
<!-- ::app_builder&#45;&gt;::domain -->
<g id="edge2" class="edge">
<title>::app_builder&#45;&gt;::domain</title>
<path fill="none" stroke="black" d="M126.79,-147C160.93,-135.29 209.59,-118.59 244.89,-106.48"/>
<polygon fill="black" stroke="black" points="245.63,-109.93 253.95,-103.37 243.36,-103.3 245.63,-109.93"/>
</g>
<!-- ::clap -->
<g id="node10" class="node">
<title>::clap</title>
<ellipse fill="none" stroke="black" cx="94" cy="-18" rx="38.06" ry="18"/>
<text text-anchor="middle" x="94" y="-13.32" font-family="Times,serif" font-size="14.00">::clap</text>
</g>
<!-- ::configuration&#45;&gt;::clap -->
<g id="edge3" class="edge">
<title>::configuration&#45;&gt;::clap</title>
<path fill="none" stroke="black" d="M94,-71.7C94,-64.41 94,-55.73 94,-47.54"/>
<polygon fill="black" stroke="black" points="97.5,-47.62 94,-37.62 90.5,-47.62 97.5,-47.62"/>
</g>
<!-- ::domain&#45;&gt;::storages::file -->
<g id="edge4" class="edge">
<title>::domain&#45;&gt;::storages::file</title>
<path fill="none" stroke="black" d="M325.04,-102.61C347.84,-110.73 377.89,-122.51 403,-136 406.05,-137.64 409.16,-139.49 412.2,-141.42"/>
<polygon fill="black" stroke="black" points="410.06,-144.19 420.31,-146.86 413.96,-138.38 410.06,-144.19"/>
</g>
<!-- ::lib -->
<g id="node7" class="node">
<title>::lib</title>
<ellipse fill="#e3f38b" stroke="black" cx="152" cy="-239.25" rx="27" ry="18"/>
<text text-anchor="middle" x="152" y="-234.57" font-family="Times,serif" font-size="14.00">lib</text>
</g>
<!-- ::main -->
<g id="node8" class="node">
<title>::main</title>
<ellipse fill="#e3f38b" stroke="black" cx="342" cy="-239.25" rx="35.95" ry="18"/>
<text text-anchor="middle" x="342" y="-234.57" font-family="Times,serif" font-size="14.00">main</text>
</g>
<!-- ::main&#45;&gt;::storages::memory -->
<g id="edge6" class="edge">
<title>::main&#45;&gt;::storages::memory</title>
<path fill="none" stroke="black" d="M342,-220.8C342,-212.15 342,-201.5 342,-191.69"/>
<polygon fill="black" stroke="black" points="345.5,-191.87 342,-181.87 338.5,-191.87 345.5,-191.87"/>
</g>
<!-- ::main&#45;&gt;::app_builder -->
<g id="edge5" class="edge">
<title>::main&#45;&gt;::app_builder</title>
<path fill="none" stroke="black" d="M305.99,-237.61C269.44,-235.94 211.73,-230.49 165,-213.25 147.53,-206.8 129.87,-196.06 115.7,-186.16"/>
<polygon fill="black" stroke="black" points="117.87,-183.41 107.71,-180.39 113.77,-189.09 117.87,-183.41"/>
</g>
<!-- ::anyhow -->
<g id="node11" class="node">
<title>::anyhow</title>
<ellipse fill="none" stroke="black" cx="630" cy="-162" rx="55.94" ry="18"/>
<text text-anchor="middle" x="630" y="-157.32" font-family="Times,serif" font-size="14.00">::anyhow</text>
</g>
<!-- ::main&#45;&gt;::anyhow -->
<g id="edge7" class="edge">
<title>::main&#45;&gt;::anyhow</title>
<path fill="none" stroke="black" d="M377.92,-236.43C431.45,-233.33 529.36,-226.09 562,-213.25 577.46,-207.17 592.54,-196.65 604.55,-186.8"/>
<polygon fill="black" stroke="black" points="606.63,-189.63 611.95,-180.46 602.07,-184.31 606.63,-189.63"/>
</g>
<!-- ::storage&#45;&gt;::domain -->
<g id="edge8" class="edge">
<title>::storage&#45;&gt;::domain</title>
<path fill="none" stroke="black" d="M238.54,-144.76C246.91,-136.02 257.41,-125.05 266.73,-115.31"/>
<polygon fill="black" stroke="black" points="269.11,-117.89 273.5,-108.24 264.06,-113.04 269.11,-117.89"/>
</g>
</g>
</svg>
