<?xml version="1.0" encoding="UTF-8" standalone="no"?>
<!DOCTYPE svg PUBLIC "-//W3C//DTD SVG 1.1//EN"
 "http://www.w3.org/Graphics/SVG/1.1/DTD/svg11.dtd">
<!-- Generated by graphviz version 12.1.2 (0)
 -->
<!-- Title: dependencies Pages: 1 -->
<svg width="591pt" height="148pt"
 viewBox="0.00 0.00 591.26 148.00" xmlns="http://www.w3.org/2000/svg" xmlns:xlink="http://www.w3.org/1999/xlink">
<g id="graph0" class="graph" transform="scale(1 1) rotate(0) translate(4 144)">
<title>dependencies</title>
<polygon fill="white" stroke="none" points="-4,4 -4,-144 587.26,-144 587.26,4 -4,4"/>
<g id="clust1" class="cluster">
<title>cluster_</title>
<polygon fill="#eeeeee" stroke="#eeeeee" points="8,-8 8,-132 180,-132 180,-8 8,-8"/>
</g>
<!-- ::configuration -->
<g id="node1" class="node">
<title>::configuration</title>
<ellipse fill="#e3f38b" stroke="black" cx="94" cy="-34" rx="78.04" ry="18"/>
<text text-anchor="middle" x="94" y="-29.32" font-family="Times,serif" font-size="14.00">configuration</text>
</g>
<!-- ::lib -->
<g id="node2" class="node">
<title>::lib</title>
<ellipse fill="#e3f38b" stroke="black" cx="49" cy="-106" rx="27" ry="18"/>
<text text-anchor="middle" x="49" y="-101.33" font-family="Times,serif" font-size="14.00">lib</text>
</g>
<!-- ::main -->
<g id="node3" class="node">
<title>::main</title>
<ellipse fill="#e3f38b" stroke="black" cx="136" cy="-106" rx="35.95" ry="18"/>
<text text-anchor="middle" x="136" y="-101.33" font-family="Times,serif" font-size="14.00">main</text>
</g>
<!-- ::main&#45;&gt;::configuration -->
<g id="edge1" class="edge">
<title>::main&#45;&gt;::configuration</title>
<path fill="none" stroke="black" d="M126.05,-88.41C121.25,-80.42 115.39,-70.64 109.99,-61.64"/>
<polygon fill="black" stroke="black" points="113.1,-60.03 104.95,-53.25 107.1,-63.63 113.1,-60.03"/>
</g>
<!-- ::anyhow -->
<g id="node4" class="node">
<title>::anyhow</title>
<ellipse fill="none" stroke="black" cx="246" cy="-34" rx="55.94" ry="18"/>
<text text-anchor="middle" x="246" y="-29.32" font-family="Times,serif" font-size="14.00">::anyhow</text>
</g>
<!-- ::main&#45;&gt;::anyhow -->
<g id="edge2" class="edge">
<title>::main&#45;&gt;::anyhow</title>
<path fill="none" stroke="black" d="M157.73,-91.17C173.26,-81.29 194.47,-67.79 212.2,-56.51"/>
<polygon fill="black" stroke="black" points="213.8,-59.64 220.36,-51.32 210.04,-53.74 213.8,-59.64"/>
</g>
<!-- ::clap -->
<g id="node5" class="node">
<title>::clap</title>
<ellipse fill="none" stroke="black" cx="358" cy="-34" rx="38.06" ry="18"/>
<text text-anchor="middle" x="358" y="-29.32" font-family="Times,serif" font-size="14.00">::clap</text>
</g>
<!-- ::main&#45;&gt;::clap -->
<g id="edge3" class="edge">
<title>::main&#45;&gt;::clap</title>
<path fill="none" stroke="black" d="M166.82,-96.2C201.9,-86.06 260.84,-68.65 311,-52 313.34,-51.22 315.74,-50.41 318.16,-49.57"/>
<polygon fill="black" stroke="black" points="319.05,-52.97 327.32,-46.35 316.73,-46.37 319.05,-52.97"/>
</g>
<!-- ::std -->
<g id="node6" class="node">
<title>::std</title>
<ellipse fill="none" stroke="black" cx="447" cy="-34" rx="33.32" ry="18"/>
<text text-anchor="middle" x="447" y="-29.32" font-family="Times,serif" font-size="14.00">::std</text>
</g>
<!-- ::main&#45;&gt;::std -->
<g id="edge4" class="edge">
<title>::main&#45;&gt;::std</title>
<path fill="none" stroke="black" d="M170.48,-100.35C222.15,-92.91 322.43,-76.6 405,-52 407.09,-51.38 409.22,-50.69 411.36,-49.96"/>
<polygon fill="black" stroke="black" points="412.37,-53.32 420.54,-46.56 409.95,-46.75 412.37,-53.32"/>
</g>
<!-- ::tokio -->
<g id="node7" class="node">
<title>::tokio</title>
<ellipse fill="none" stroke="black" cx="541" cy="-34" rx="42.26" ry="18"/>
<text text-anchor="middle" x="541" y="-29.32" font-family="Times,serif" font-size="14.00">::tokio</text>
</g>
<!-- ::main&#45;&gt;::tokio -->
<g id="edge5" class="edge">
<title>::main&#45;&gt;::tokio</title>
<path fill="none" stroke="black" d="M171.19,-101.68C235.11,-95.23 374.27,-79.17 489,-52 492.12,-51.26 495.32,-50.42 498.53,-49.52"/>
<polygon fill="black" stroke="black" points="499.32,-52.94 507.89,-46.71 497.31,-46.23 499.32,-52.94"/>
</g>
</g>
</svg>
